<svg width="33" height="32" viewBox="0 0 33 32" fill="none" xmlns="http://www.w3.org/2000/svg">
<g clip-path="url(#clip0_2963_9628)">
<rect width="32.2254" height="32" rx="8" fill="white"/>
<rect width="32.2254" height="32" rx="8" fill="url(#paint0_linear_2963_9628)"/>
<path fill-rule="evenodd" clip-rule="evenodd" d="M16.1127 2.03885C8.34784 2.03885 2.05319 8.28948 2.05319 16C2.05319 23.7106 8.34784 29.9612 16.1127 29.9612C23.8775 29.9612 30.1722 23.7106 30.1722 16C30.1722 8.28948 23.8775 2.03885 16.1127 2.03885ZM1.97498 16C1.97498 8.24658 8.30464 1.96118 16.1127 1.96118C23.9207 1.96118 30.2504 8.24658 30.2504 16C30.2504 23.7535 23.9207 30.0389 16.1127 30.0389C8.30464 30.0389 1.97498 23.7535 1.97498 16Z" fill="#D0D5DD"/>
<path fill-rule="evenodd" clip-rule="evenodd" d="M16.1127 12.0779C13.9312 12.0779 12.1628 13.834 12.1628 16.0002C12.1628 18.1665 13.9312 19.9226 16.1127 19.9226C18.2942 19.9226 20.0627 18.1665 20.0627 16.0002C20.0627 13.834 18.2942 12.0779 16.1127 12.0779ZM12.0845 16.0002C12.0845 13.7911 13.888 12.0002 16.1127 12.0002C18.3374 12.0002 20.1409 13.7911 20.1409 16.0002C20.1409 18.2094 18.3374 20.0002 16.1127 20.0002C13.888 20.0002 12.0845 18.2094 12.0845 16.0002Z" fill="#D0D5DD"/>
<path fill-rule="evenodd" clip-rule="evenodd" d="M16.1127 13.3201C14.6223 13.3201 13.4142 14.5198 13.4142 15.9997C13.4142 17.4796 14.6223 18.6793 16.1127 18.6793C17.603 18.6793 18.8111 17.4796 18.8111 15.9997C18.8111 14.5198 17.603 13.3201 16.1127 13.3201ZM13.336 15.9997C13.336 14.4769 14.5791 13.2424 16.1127 13.2424C17.6462 13.2424 18.8894 14.4769 18.8894 15.9997C18.8894 17.5225 17.6462 18.757 16.1127 18.757C14.5791 18.757 13.336 17.5225 13.336 15.9997Z" fill="#D0D5DD"/>
<path d="M16.0735 0H16.1518V32H16.0735V0Z" fill="#D0D5DD"/>
<path d="M32.2253 15.9609L32.2253 16.0386L-1.14475e-05 16.0386L-1.14441e-05 15.9609L32.2253 15.9609Z" fill="#D0D5DD"/>
<path d="M26.7893 0H26.8675V32H26.7893V0Z" fill="#D0D5DD"/>
<path d="M10.7157 0H10.7939V32H10.7157V0Z" fill="#D0D5DD"/>
<path d="M21.4314 0H21.5096V32H21.4314V0Z" fill="#D0D5DD"/>
<path d="M5.35785 0H5.43607V32H5.35785V0Z" fill="#D0D5DD"/>
<path d="M32.2253 26.6016L32.2253 26.6792L-1.14475e-05 26.6792L-1.14441e-05 26.6016L32.2253 26.6016Z" fill="#D0D5DD"/>
<path d="M32.2253 10.6406L32.2253 10.7183L-1.14475e-05 10.7183L-1.14441e-05 10.6406L32.2253 10.6406Z" fill="#D0D5DD"/>
<path d="M32.2253 21.2812L32.2253 21.3589L-1.14475e-05 21.3589L-1.14441e-05 21.2812L32.2253 21.2812Z" fill="#D0D5DD"/>
<path d="M32.2253 5.32031L32.2253 5.39798L-1.14475e-05 5.39798L-1.14441e-05 5.32031L32.2253 5.32031Z" fill="#D0D5DD"/>
<g filter="url(#filter0_dd_2963_9628)">
<ellipse cx="16.1127" cy="16" rx="8.05634" ry="8" fill="url(#paint1_linear_2963_9628)"/>
</g>
<g filter="url(#filter1_b_2963_9628)">
<path d="M0 16H32.2254V19.2C32.2254 23.6804 32.2254 25.9206 31.3534 27.6319C30.5864 29.1372 29.3626 30.3611 27.8573 31.1281C26.146 32 23.9058 32 19.4254 32H12.8C8.31958 32 6.07937 32 4.36808 31.1281C2.86278 30.3611 1.63893 29.1372 0.871948 27.6319C0 25.9206 0 23.6804 0 19.2V16Z" fill="white" fill-opacity="0.2"/>
</g>
</g>
<rect x="0.1" y="0.1" width="32.0254" height="31.8" rx="7.9" stroke="#D0D5DD" stroke-width="0.2"/>
<defs>
<filter id="filter0_dd_2963_9628" x="5.05634" y="6" width="22.1127" height="22" filterUnits="userSpaceOnUse" color-interpolation-filters="sRGB">
<feFlood flood-opacity="0" result="BackgroundImageFix"/>
<feColorMatrix in="SourceAlpha" type="matrix" values="0 0 0 0 0 0 0 0 0 0 0 0 0 0 0 0 0 0 127 0" result="hardAlpha"/>
<feOffset dy="1"/>
<feGaussianBlur stdDeviation="1"/>
<feColorMatrix type="matrix" values="0 0 0 0 0.0627451 0 0 0 0 0.0941176 0 0 0 0 0.156863 0 0 0 0.06 0"/>
<feBlend mode="normal" in2="BackgroundImageFix" result="effect1_dropShadow_2963_9628"/>
<feColorMatrix in="SourceAlpha" type="matrix" values="0 0 0 0 0 0 0 0 0 0 0 0 0 0 0 0 0 0 127 0" result="hardAlpha"/>
<feOffset dy="1"/>
<feGaussianBlur stdDeviation="1.5"/>
<feColorMatrix type="matrix" values="0 0 0 0 0.0627451 0 0 0 0 0.0941176 0 0 0 0 0.156863 0 0 0 0.1 0"/>
<feBlend mode="normal" in2="effect1_dropShadow_2963_9628" result="effect2_dropShadow_2963_9628"/>
<feBlend mode="normal" in="SourceGraphic" in2="effect2_dropShadow_2963_9628" result="shape"/>
</filter>
<filter id="filter1_b_2963_9628" x="-5" y="11" width="42.2253" height="26" filterUnits="userSpaceOnUse" color-interpolation-filters="sRGB">
<feFlood flood-opacity="0" result="BackgroundImageFix"/>
<feGaussianBlur in="BackgroundImageFix" stdDeviation="2.5"/>
<feComposite in2="SourceAlpha" operator="in" result="effect1_backgroundBlur_2963_9628"/>
<feBlend mode="normal" in="SourceGraphic" in2="effect1_backgroundBlur_2963_9628" result="shape"/>
</filter>
<linearGradient id="paint0_linear_2963_9628" x1="16.1127" y1="0" x2="16.1127" y2="32" gradientUnits="userSpaceOnUse">
<stop stop-color="white"/>
<stop offset="1" stop-color="#D0D5DD"/>
</linearGradient>
<linearGradient id="paint1_linear_2963_9628" x1="12.0845" y1="24" x2="20.0508" y2="7.95528" gradientUnits="userSpaceOnUse">
<stop stop-color="#53389E"/>
<stop offset="1" stop-color="#6941C6"/>
</linearGradient>
<clipPath id="clip0_2963_9628">
<rect width="32.2254" height="32" rx="8" fill="white"/>
</clipPath>
</defs>
</svg>
